<svg width="64" height="64" viewBox="0 0 64 64" fill="none" xmlns="http://www.w3.org/2000/svg">
<g clip-path="url(#clip0_11_7822)">
<path d="M45.3569 20.6406H42.0069C41.2784 20.6406 40.5855 20.9906 40.1569 21.5906L28.9284 37.1621L23.8426 30.1049C23.4141 29.5121 22.7284 29.1549 21.9926 29.1549H18.6426C18.1784 29.1549 17.9069 29.6835 18.1784 30.0621L27.0784 42.4049C27.2886 42.6984 27.5658 42.9375 27.8869 43.1024C28.208 43.2674 28.5638 43.3534 28.9248 43.3534C29.2858 43.3534 29.6416 43.2674 29.9627 43.1024C30.2838 42.9375 30.561 42.6984 30.7712 42.4049L45.8141 21.5478C46.0927 21.1692 45.8212 20.6406 45.3569 20.6406Z" fill="#1890FF"/>
<path d="M32 0C14.3286 0 0 14.3286 0 32C0 49.6714 14.3286 64 32 64C49.6714 64 64 49.6714 64 32C64 14.3286 49.6714 0 32 0ZM32 58.5714C17.3286 58.5714 5.42857 46.6714 5.42857 32C5.42857 17.3286 17.3286 5.42857 32 5.42857C46.6714 5.42857 58.5714 17.3286 58.5714 32C58.5714 46.6714 46.6714 58.5714 32 58.5714Z" fill="#1890FF"/>
</g>
<defs>
<clipPath id="clip0_11_7822">
<rect width="64" height="64" fill="white"/>
</clipPath>
</defs>
</svg>
